<svg width="229" height="40" viewBox="0 0 229 40" fill="none" xmlns="http://www.w3.org/2000/svg">
<path d="M19.8854 30.7453H15.6301L3.71804 17.4567V30.7453H0V0H3.71804V13.2886L15.6301 0H19.8854L6.10633 15.3727L19.8854 30.7453Z" fill="#212121"/>
<path fill-rule="evenodd" clip-rule="evenodd" d="M178.722 30.7028C179.447 30.9905 180.323 31.1561 181.377 31.1561C181.836 31.1561 182.826 31.1561 184.188 30.7028H228.938L229 30.7029V30.2084H228.938V30.1712H227.002C225.867 30.0262 225.686 29.4566 225.686 28.4367V17.6415C225.686 17.5761 225.686 17.5088 225.686 17.4398V17.4337C225.69 15.9391 225.695 13.6524 224.153 12.0791C223.2 11.0903 221.584 10.3898 219.388 10.3898C217.068 10.3898 214.582 11.5435 212.759 12.7796C212.179 11.8731 210.895 10.3898 207.58 10.3898C206.627 10.3898 204.059 10.637 201.739 12.3676V10.3074C200.123 11.0491 198.3 11.6671 195.565 11.9143V12.4088C198.59 12.45 198.88 12.656 198.88 14.0569V28.4367C198.88 29.486 198.611 30.0306 197.542 30.1712H192.349C191.233 30.0218 190.989 29.4263 190.989 28.4367V10.3074C189.415 11.0079 187.551 11.7083 184.816 11.9143V12.4088C187.923 12.45 188.131 12.6972 188.131 14.0569V27.9011C186.681 29.0547 184.568 30.1672 182.91 30.1672C181.17 30.1672 178.353 29.8376 178.353 25.0993V10.3074C177.027 10.9667 174.997 11.7495 172.18 11.9143V12.4088C175.287 12.45 175.494 12.6972 175.494 14.0569V25.0168C175.494 26.8538 175.99 28.9645 177.725 30.1712H172.245C171.184 30.0306 170.946 29.486 170.946 28.4367V10.3074C169.371 11.0491 167.3 11.7495 164.772 11.9143V12.4088C167.755 12.45 168.087 12.6148 168.087 14.0569V28.4367C168.087 29.5145 167.851 30.0349 166.781 30.1712H165.304C164.169 30.0262 163.988 29.4566 163.988 28.4367L163.988 17.5557L163.988 17.4342C163.992 15.9394 163.998 13.6525 162.455 12.0791C161.502 11.0903 159.886 10.3898 157.69 10.3898C155.37 10.3898 152.884 11.5435 151.061 12.7796C150.481 11.8731 149.197 10.3898 145.883 10.3898C144.93 10.3898 142.361 10.637 140.041 12.3676V10.3074C138.425 11.0491 136.602 11.6671 133.868 11.9143V12.4088C136.892 12.45 137.182 12.656 137.182 14.0569V28.4367C137.182 29.486 136.913 30.0306 135.844 30.1712H133.781V30.7028H178.722ZM188.131 30.1712H185.488C186.291 29.7814 187.179 29.2373 188.131 28.4779V30.1712ZM209.501 30.1712H203.016C201.89 30.0262 201.739 29.4566 201.739 28.4367V12.9444C203.147 11.9967 204.97 11.3787 206.296 11.3787C208.948 11.3787 210.853 12.4912 210.853 16.8999V28.4367C210.853 29.486 210.555 30.0306 209.501 30.1712ZM221.514 30.1712H215.003C213.893 30.0262 213.712 29.4566 213.712 28.4367V16.8999C213.712 15.0045 213.381 14.0157 213.008 13.274C214.665 12.1616 216.737 11.3787 218.104 11.3787C222.247 11.3787 222.951 14.1805 222.827 17.5591V28.4367C222.827 29.486 222.558 30.0306 221.514 30.1712ZM161.129 28.4367C161.129 29.486 160.86 30.0306 159.816 30.1712H153.305C152.196 30.0262 152.014 29.4566 152.014 28.4367V16.8999C152.014 15.0045 151.683 14.0157 151.31 13.274C152.967 12.1616 155.039 11.3787 156.406 11.3787C160.549 11.3787 161.253 14.1805 161.129 17.5591V28.4367ZM149.156 28.4367C149.156 29.486 148.857 30.0306 147.804 30.1712H141.318C140.192 30.0262 140.041 29.4566 140.041 28.4367V12.9444C141.45 11.9967 143.273 11.3787 144.598 11.3787C147.25 11.3787 149.156 12.4912 149.156 16.8999V28.4367Z" fill="#212121"/>
<path d="M169.496 6.51674C170.78 6.51674 171.567 5.52788 171.567 4.4566C171.567 3.3441 170.78 2.39645 169.496 2.39645C168.253 2.39645 167.424 3.3441 167.424 4.4566C167.424 5.52788 168.253 6.51674 169.496 6.51674Z" fill="#212121"/>
<path fill-rule="evenodd" clip-rule="evenodd" d="M50.9316 19.8318C50.9316 13.549 55.628 8.99016 62.0978 8.99016V8.99146C67.2539 8.99146 72.7335 12.8194 72.7335 19.9129C72.7335 20.3302 72.692 20.7436 72.6506 21.1424L72.6078 21.5557L72.1615 21.5597H54.782C55.505 25.0194 58.4198 27.2258 62.3451 27.2258C65.1022 27.2258 67.3448 26.084 68.4996 24.0944L68.7455 23.6704L71.973 25.5032L71.7258 25.8913C69.7879 28.931 66.3532 30.6735 62.3036 30.6735C55.7135 30.6735 50.9316 26.1146 50.9316 19.8318ZM62.0992 12.4419C58.2983 12.4419 55.4769 14.6469 54.7779 18.1053H68.8925C68.2296 14.6469 65.6128 12.4419 62.0992 12.4419Z" fill="#212121"/>
<path d="M44.6208 24.0478C44.7838 25.7957 45.6793 26.8005 47.2737 27.0584V27.0597C47.5838 27.1248 47.9245 27.1567 48.2827 27.1567H50.9209V30.6536H48.2506C47.3713 30.6536 46.5573 30.5726 45.841 30.4117C44.4577 30.1366 43.3672 29.6023 42.5867 28.8088C41.4146 27.691 40.8439 26.1053 40.8439 24.1143V12.9443H36.4857L37.9839 9.44744H40.8439V3.96077L44.5714 3.17394V9.44607H50.937L49.4388 12.943H44.5714V23.3674C44.5714 23.6105 44.5887 23.8379 44.6208 24.0478Z" fill="#212121"/>
<path d="M26.4595 35.0198L37.4132 9.44341H33.48L26.684 25.3198L19.8881 9.44341H15.9535L24.7154 29.9279L23.0809 33.7518C22.3673 35.4225 20.718 36.5084 18.8924 36.5084H18.4126V40H18.883C22.1828 40 25.1644 38.0395 26.4582 35.0211L26.4595 35.0198Z" fill="#212121"/>
<path fill-rule="evenodd" clip-rule="evenodd" d="M77.2486 30.7028L77.2481 30.7045H89.0559L89.0563 30.7028H100.988L100.988 30.7045H110.476L110.476 30.7028H120.159C121.073 31.022 122.037 31.1577 122.942 31.1577C124.057 31.1577 125.087 30.9958 126.041 30.7028H133.246V30.1712H127.413C129.237 29.3108 130.762 27.9553 132.078 26.3781L131.737 26.0897C129.124 29.0152 126.55 30.1688 123.982 30.1688C121.082 30.1688 117.887 28.7268 120.301 19.1265H134.14C135.144 14.8826 133.847 10.3915 128.42 10.3915C122.661 10.3915 118.127 14.5117 116.493 20.8982C115.17 26.0729 116.72 28.8574 118.993 30.1712H108.571C107.559 30.0413 107.453 29.5653 107.741 28.4383L110.608 17.2311C111.24 14.7589 113.969 11.3803 115.916 11.3803C116.993 11.3803 117.271 11.7511 117.071 12.534C117.035 12.6736 116.978 12.8228 116.919 12.977C116.855 13.1415 116.79 13.3116 116.746 13.4817C116.536 14.3057 117.124 14.7589 117.953 14.7589C118.782 14.7589 119.8 14.1821 120.137 12.8636C120.432 11.7099 119.816 10.3915 117.662 10.3915C115.342 10.3915 113.025 11.8336 111.315 14.4705L112.379 10.309C110.719 10.988 108.787 11.6669 106.057 11.8955C106.541 11.053 106.903 10.1727 107.132 9.27896C108.186 5.15867 106.819 0.46156 98.0356 0.46156C96.7049 0.46156 95.1037 0.575781 93.5031 0.690003C92.064 0.792673 90.6254 0.895278 89.3846 0.914812H84.8687L84.7417 1.40921H86.1918C88.3462 1.40921 88.7578 1.90367 88.3154 3.6342L82.0875 27.9851C81.7211 29.419 81.2083 30.0217 79.7188 30.1712H77.1145V30.7028H77.2486ZM88.0962 18.2612C89.7307 18.6732 91.4494 18.7557 92.941 18.7557C98.8697 18.7557 103.431 15.9842 105.742 12.4115C108.644 12.4552 108.915 12.6695 108.56 14.0585L104.882 28.4383C104.594 29.5653 104.245 30.0413 103.19 30.1712H86.7574C85.3822 30.0258 85.2357 29.4458 85.6091 27.9851L88.0962 18.2612ZM92.2259 2.10966C93.9594 1.32679 95.7115 0.956023 97.2444 0.956023C102.382 0.956023 104.669 3.84019 103.277 9.27896C101.78 15.1298 97.7068 18.2612 92.9009 18.2612C91.4922 18.2612 89.8457 18.22 88.2112 17.8079L92.2259 2.10966ZM128.002 10.8859C131.441 10.8859 132.13 14.5117 131.076 18.632H120.428C122.191 13.358 124.77 10.8859 128.002 10.8859Z" fill="#212121"/>
</svg>
