<svg width="210" height="40" viewBox="0 0 210 40" fill="none" xmlns="http://www.w3.org/2000/svg">
<path d="M190.77 15.8958H192.957V17.849H193.035C193.348 17.1198 193.829 16.5512 194.48 16.1432C195.14 15.7352 195.908 15.5312 196.785 15.5312C197.723 15.5312 198.517 15.7656 199.168 16.2344C199.828 16.6944 200.322 17.3628 200.652 18.2396H200.743C201.021 17.4062 201.512 16.7465 202.215 16.2604C202.927 15.7743 203.782 15.5312 204.78 15.5312C205.735 15.5312 206.546 15.7569 207.215 16.2083C207.883 16.651 208.391 17.2891 208.738 18.1224C209.086 18.9557 209.259 19.9497 209.259 21.1042V29.3333H207.072V21.4167C207.072 20.184 206.842 19.2422 206.382 18.5911C205.921 17.9401 205.266 17.6146 204.415 17.6146C203.825 17.6146 203.278 17.7708 202.775 18.0833C202.28 18.3958 201.876 18.8689 201.564 19.5026C201.26 20.1363 201.108 20.9132 201.108 21.8333V29.3333H198.921V21.4167C198.921 20.184 198.691 19.2422 198.23 18.5911C197.77 17.9401 197.115 17.6146 196.264 17.6146C195.674 17.6146 195.127 17.7708 194.624 18.0833C194.129 18.3958 193.725 18.8689 193.413 19.5026C193.109 20.1363 192.957 20.9132 192.957 21.8333V29.3333H190.77V15.8958Z" fill="black"/>
<path d="M187.547 29.3333H185.359V27.3801H185.268C184.93 28.1093 184.409 28.6779 183.706 29.0859C183.011 29.4938 182.191 29.6978 181.245 29.6978C180.255 29.6978 179.413 29.4765 178.719 29.0338C178.024 28.5824 177.499 27.94 177.143 27.1067C176.787 26.2734 176.609 25.2794 176.609 24.1249V15.8958H178.797V23.8124C178.797 25.0451 179.049 25.9869 179.552 26.6379C180.056 27.289 180.776 27.6145 181.714 27.6145C182.365 27.6145 182.964 27.4583 183.51 27.1458C184.066 26.8333 184.513 26.3602 184.852 25.7265C185.19 25.0928 185.359 24.3159 185.359 23.3958V15.8958H187.547V29.3333Z" fill="black"/>
<path d="M171.199 15.8957H173.387V29.3332H171.199V15.8957ZM172.293 13.0832C171.876 13.0832 171.529 12.9443 171.251 12.6665C170.973 12.3887 170.834 12.0415 170.834 11.6248C170.834 11.2082 170.973 10.8609 171.251 10.5832C171.529 10.3054 171.876 10.1665 172.293 10.1665C172.709 10.1665 173.057 10.3054 173.334 10.5832C173.612 10.8609 173.751 11.2082 173.751 11.6248C173.751 12.0415 173.612 12.3887 173.334 12.6665C173.057 12.9443 172.709 13.0832 172.293 13.0832Z" fill="black"/>
<path d="M149.487 15.8958H151.674V17.849H151.752C152.065 17.1198 152.546 16.5512 153.198 16.1432C153.857 15.7352 154.625 15.5312 155.502 15.5312C156.44 15.5312 157.234 15.7656 157.885 16.2344C158.545 16.6944 159.04 17.3628 159.369 18.2396H159.461C159.738 17.4062 160.229 16.7465 160.932 16.2604C161.644 15.7743 162.499 15.5312 163.497 15.5312C164.452 15.5312 165.263 15.7569 165.932 16.2083C166.6 16.651 167.108 17.2891 167.455 18.1224C167.803 18.9557 167.976 19.9497 167.976 21.1042V29.3333H165.789V21.4167C165.789 20.184 165.559 19.2422 165.099 18.5911C164.638 17.9401 163.983 17.6146 163.132 17.6146C162.542 17.6146 161.995 17.7708 161.492 18.0833C160.997 18.3958 160.593 18.8689 160.281 19.5026C159.977 20.1363 159.825 20.9132 159.825 21.8333V29.3333H157.638V21.4167C157.638 20.184 157.408 19.2422 156.948 18.5911C156.487 17.9401 155.832 17.6146 154.981 17.6146C154.391 17.6146 153.844 17.7708 153.341 18.0833C152.846 18.3958 152.442 18.8689 152.13 19.5026C151.826 20.1363 151.674 20.9132 151.674 21.8333V29.3333H149.487V15.8958Z" fill="black"/>
<path d="M140.612 29.6979C139.284 29.6979 138.086 29.3898 137.019 28.7734C135.96 28.1571 135.126 27.3108 134.519 26.2344C133.911 25.1493 133.607 23.9427 133.607 22.6146C133.607 21.2865 133.898 20.0842 134.48 19.0078C135.07 17.9227 135.877 17.072 136.901 16.4557C137.934 15.8394 139.085 15.5312 140.352 15.5312C141.611 15.5312 142.735 15.8394 143.724 16.4557C144.723 17.072 145.5 17.9184 146.055 18.9948C146.611 20.0712 146.888 21.2778 146.888 22.6146L146.862 23.3698H135.886C135.99 24.2205 136.255 24.967 136.68 25.6094C137.114 26.2517 137.674 26.7465 138.36 27.0938C139.046 27.441 139.814 27.6146 140.664 27.6146C141.576 27.6146 142.357 27.4149 143.008 27.0156C143.668 26.6076 144.171 26.0347 144.519 25.2969L146.446 26.1302C145.916 27.2413 145.148 28.1137 144.141 28.7474C143.134 29.3811 141.958 29.6979 140.612 29.6979ZM144.48 21.2344C144.436 20.5573 144.232 19.9453 143.868 19.3984C143.503 18.8429 143.013 18.4089 142.396 18.0964C141.789 17.7752 141.107 17.6146 140.352 17.6146C139.623 17.6146 138.959 17.7665 138.36 18.0703C137.761 18.3655 137.257 18.7865 136.849 19.3333C136.441 19.8715 136.155 20.5052 135.99 21.2344H144.48Z" fill="black"/>
<path d="M125.202 15.8958H127.39V17.9792H127.481C127.828 17.2413 128.314 16.651 128.939 16.2083C129.573 15.7569 130.263 15.5312 131.009 15.5312C131.487 15.5312 131.956 15.6267 132.416 15.8177V17.9792C131.921 17.8229 131.435 17.7448 130.957 17.7448C130.211 17.7448 129.568 17.9401 129.03 18.3307C128.501 18.7127 128.093 19.2682 127.806 19.9974C127.529 20.7266 127.39 21.599 127.39 22.6146V29.3333H125.202V15.8958Z" fill="black"/>
<path d="M110 10.479H115.729C117.066 10.479 118.247 10.7177 119.271 11.1951C120.295 11.6726 121.089 12.3453 121.654 13.2134C122.218 14.0728 122.5 15.071 122.5 16.2082C122.5 17.3453 122.218 18.3479 121.654 19.216C121.089 20.0754 120.295 20.7438 119.271 21.2212C118.247 21.6986 117.066 21.9373 115.729 21.9373H112.292V29.3332H110V10.479ZM115.729 19.8019C116.649 19.8019 117.439 19.6587 118.099 19.3722C118.767 19.0858 119.275 18.6734 119.622 18.1353C119.978 17.5971 120.156 16.9547 120.156 16.2082C120.156 15.0797 119.766 14.1986 118.984 13.5649C118.212 12.9313 117.127 12.6144 115.729 12.6144H112.292V19.8019H115.729Z" fill="black"/>
<path d="M95.2642 29.6979C93.9013 29.6979 92.6774 29.3898 91.5923 28.7734C90.5159 28.1571 89.6739 27.3108 89.0662 26.2344C88.4586 25.158 88.1548 23.9514 88.1548 22.6146C88.1548 21.2778 88.4499 20.0712 89.0402 18.9948C89.6392 17.9097 90.4595 17.0634 91.5011 16.4557C92.5428 15.8394 93.7103 15.5312 95.0037 15.5312C96.2885 15.5312 97.4343 15.8394 98.4412 16.4557C99.4482 17.0634 100.234 17.9054 100.798 18.9818C101.362 20.0582 101.644 21.2691 101.644 22.6146C101.644 22.9531 101.627 23.2569 101.592 23.526H90.9152C91.0194 24.2812 91.2711 24.9453 91.6704 25.5182C92.0697 26.0825 92.5819 26.5208 93.2069 26.8333C93.8319 27.1458 94.5263 27.3021 95.2902 27.3021C96.1322 27.3021 96.8527 27.1198 97.4517 26.7552C98.0506 26.3819 98.5107 25.8611 98.8319 25.1927L101.202 26.1562C100.655 27.2587 99.8692 28.1267 98.8449 28.7604C97.8293 29.3854 96.6357 29.6979 95.2642 29.6979ZM98.7928 21.1562C98.7407 20.5486 98.5454 20.0017 98.2069 19.5156C97.877 19.0208 97.4343 18.6345 96.8787 18.3568C96.3232 18.0703 95.6982 17.9271 95.0037 17.9271C93.9968 17.9271 93.1374 18.2179 92.4256 18.7995C91.7138 19.3811 91.2407 20.1667 91.0063 21.1562H98.7928Z" fill="black"/>
<path d="M78.2393 15.8958H80.5049V12.5625H83.2132V15.8958H86.4684V18.0833H83.2132V25.0625C83.2132 25.7569 83.3608 26.2691 83.6559 26.599C83.9597 26.9288 84.4285 27.0937 85.0622 27.0937C85.557 27.0937 86.0257 27.0243 86.4684 26.8854V29.3854C85.9215 29.5937 85.3139 29.6979 84.6455 29.6979C83.7861 29.6979 83.0439 29.52 82.4189 29.1641C81.8026 28.7995 81.3295 28.2786 80.9997 27.6016C80.6698 26.9245 80.5049 26.1215 80.5049 25.1927V18.0833H78.2393V15.8958Z" fill="black"/>
<path d="M63.3757 15.8958H66.2403L70.3809 26.1041H70.5111L74.2872 15.8958H77.1257L69.7039 34.9583H66.8393L69.0268 29.3333L63.3757 15.8958Z" fill="black"/>
<path d="M50 10.479H52.8125V18.7603H52.9167L60.2604 10.479H63.8802L55.7812 19.4373L64.1667 29.3332H60.4687L52.9297 20.2967H52.8125V29.3332H50V10.479Z" fill="black"/>
<circle cx="20" cy="20" r="20" fill="#0194FF"/>
<path fill-rule="evenodd" clip-rule="evenodd" d="M21.8774 32.1564L29.7395 11.9792L8.33325 15.2505C11.7627 16.5866 14.8977 18.8147 17.3643 21.8936C19.831 24.9725 21.3216 28.518 21.8774 32.1564Z" fill="#FEC447"/>
</svg>
